<svg width="159" height="114" viewBox="0 0 159 114" fill="none" xmlns="http://www.w3.org/2000/svg">
<path d="M1 112L27.5 103L12.5 92L14.5 16L27.5 26.5L18 1.5H119L125 16H158V92L147.5 96.5V112L128.5 103L104.5 112H1Z" fill="#E7E7E7"/>
<path d="M27.5 103L1 112H104.5L128.5 103M27.5 103L12.5 92L14.5 16L27.5 26.5M27.5 103H128.5M27.5 103V26.5M27.5 103L56 92M128.5 103L147.5 112V96.5M128.5 103V92M147.5 96.5L158 92V16M147.5 96.5V36L128.5 26.5M158 16H125M158 16L128.5 26.5M125 16L119 1.5H18L27.5 26.5M125 16L128.5 26.5M27.5 26.5H56M128.5 26.5V92M128.5 26.5H56M56 92H128.5M56 92V26.5" stroke="#BFBFBF" stroke-width="2"/>
<path d="M97 53L93.7949 58M84.5 72.5L78.8158 63.5M84.5 72.5L73.1316 70.8759M84.5 72.5L89.1474 65.25M84.5 72.5L87.7919 81M42.5 66.5L58 68.7143M66.5 44L73.1316 54.5M73.1316 54.5C71.9211 58.8095 67.2 67.6857 58 68.7143M73.1316 54.5C75.7843 56.8333 83.6308 60.8 93.7949 58M73.1316 54.5L78.8158 63.5M58 68.7143L73.1316 70.8759M58 68.7143C68.4 72.8857 86.1966 88.9762 93.7949 96.5M93.7949 58L89.1474 65.25M93.7949 58C89.6308 70.8 92.0598 89 93.7949 96.5M78.8158 63.5C78.6316 65.4173 77.2368 69.5767 73.1316 70.8759M78.8158 63.5C80.7105 65.1667 85.4295 67.85 89.1474 65.25M73.1316 70.8759C77.6956 73.4173 87.0174 79 87.7919 81M93.7949 96.5L87.7919 81" stroke="white"/>
<path d="M109 66.5H125.75C122.452 66.5 118.915 64.8813 116.5 63C115.3 64.9984 110.333 66.1654 109 66.5Z" fill="white"/>
<path d="M125.75 66.5C133.62 66.5 140 60.1201 140 52.25C140 44.3799 133.62 38 125.75 38C117.88 38 111.5 44.3799 111.5 52.25C111.5 56.8217 113.153 60.3925 116.5 63C118.915 64.8813 122.452 66.5 125.75 66.5Z" fill="white"/>
<path d="M111 52.25C111 56.7854 112.587 60.4045 115.811 63.087C115.555 63.3679 115.196 63.6458 114.751 63.9149C114.132 64.2887 113.388 64.6199 112.625 64.9057C111.216 65.4329 109.792 65.7875 109.051 65.972C108.988 65.9875 108.931 66.0019 108.878 66.015L109 67H125.75C133.896 67 140.5 60.3962 140.5 52.25C140.5 44.1038 133.896 37.5 125.75 37.5C117.604 37.5 111 44.1038 111 52.25Z" stroke="black" stroke-opacity="0.15"/>
<path d="M126.419 46.4482C127.529 46.4482 128.419 46.7522 129.091 47.3602C129.774 47.9576 130.115 48.7842 130.115 49.8402C130.115 50.8856 129.779 51.6856 129.107 52.2402C128.435 52.7842 127.545 53.0562 126.435 53.0562L126.371 54.2882H124.403L124.323 51.5682H125.043C125.971 51.5682 126.686 51.4456 127.187 51.2002C127.689 50.9549 127.939 50.5069 127.939 49.8562C127.939 49.3869 127.801 49.0136 127.523 48.7362C127.257 48.4589 126.889 48.3202 126.419 48.3202C125.929 48.3202 125.545 48.4536 125.267 48.7202C125.001 48.9869 124.867 49.3549 124.867 49.8242H122.755C122.745 49.1736 122.883 48.5922 123.171 48.0802C123.459 47.5682 123.881 47.1682 124.435 46.8802C125.001 46.5922 125.662 46.4482 126.419 46.4482ZM125.379 58.1122C124.974 58.1122 124.638 57.9896 124.371 57.7442C124.115 57.4882 123.987 57.1736 123.987 56.8002C123.987 56.4269 124.115 56.1176 124.371 55.8722C124.638 55.6162 124.974 55.4882 125.379 55.4882C125.774 55.4882 126.099 55.6162 126.355 55.8722C126.611 56.1176 126.739 56.4269 126.739 56.8002C126.739 57.1736 126.611 57.4882 126.355 57.7442C126.099 57.9896 125.774 58.1122 125.379 58.1122Z" fill="#626262" fill-opacity="0.5"/>
</svg>
